<svg xmlns="http://www.w3.org/2000/svg" width="300" height="300" viewBox="0 0 300 300" fill="none">
  <!-- Halftone dots (screentone) - camada densa -->
  <g fill="#ffffff">
    <circle cx="10" cy="10" r="1.2" opacity="0.9"/>
    <circle cx="25" cy="10" r="0.8" opacity="0.7"/>
    <circle cx="40" cy="10" r="1.5" opacity="0.9"/>
    <circle cx="55" cy="10" r="0.6" opacity="0.5"/>
    <circle cx="70" cy="10" r="1.2" opacity="0.8"/>
    <circle cx="85" cy="10" r="1" opacity="0.6"/>
    <circle cx="100" cy="10" r="1.4" opacity="0.9"/>
    <circle cx="115" cy="10" r="0.7" opacity="0.5"/>
    <circle cx="130" cy="10" r="1.2" opacity="0.8"/>
    <circle cx="145" cy="10" r="1" opacity="0.6"/>
    <circle cx="160" cy="10" r="1.3" opacity="0.9"/>
    <circle cx="175" cy="10" r="0.8" opacity="0.5"/>
    <circle cx="190" cy="10" r="1.1" opacity="0.7"/>
    <circle cx="205" cy="10" r="1.5" opacity="0.9"/>
    <circle cx="220" cy="10" r="0.9" opacity="0.6"/>
    <circle cx="235" cy="10" r="1.2" opacity="0.8"/>
    <circle cx="250" cy="10" r="0.7" opacity="0.5"/>
    <circle cx="265" cy="10" r="1.3" opacity="0.9"/>
    <circle cx="280" cy="10" r="1" opacity="0.6"/>
    <circle cx="295" cy="10" r="1.2" opacity="0.8"/>

    <circle cx="5" cy="25" r="0.8" opacity="0.6"/>
    <circle cx="20" cy="25" r="1.3" opacity="0.9"/>
    <circle cx="35" cy="25" r="0.7" opacity="0.5"/>
    <circle cx="50" cy="25" r="1.1" opacity="0.7"/>
    <circle cx="65" cy="25" r="1.4" opacity="0.9"/>
    <circle cx="80" cy="25" r="0.9" opacity="0.6"/>
    <circle cx="95" cy="25" r="1.2" opacity="0.8"/>
    <circle cx="110" cy="25" r="0.6" opacity="0.5"/>
    <circle cx="125" cy="25" r="1.3" opacity="0.9"/>
    <circle cx="140" cy="25" r="1" opacity="0.7"/>
    <circle cx="155" cy="25" r="0.8" opacity="0.5"/>
    <circle cx="170" cy="25" r="1.4" opacity="0.9"/>
    <circle cx="185" cy="25" r="1.1" opacity="0.8"/>
    <circle cx="200" cy="25" r="0.7" opacity="0.5"/>
    <circle cx="215" cy="25" r="1.3" opacity="0.9"/>
    <circle cx="230" cy="25" r="1" opacity="0.6"/>
    <circle cx="245" cy="25" r="1.2" opacity="0.8"/>
    <circle cx="260" cy="25" r="0.8" opacity="0.5"/>
    <circle cx="275" cy="25" r="1.4" opacity="0.9"/>
    <circle cx="290" cy="25" r="1.1" opacity="0.7"/>

    <circle cx="12" cy="40" r="1.3" opacity="0.9"/>
    <circle cx="27" cy="40" r="0.7" opacity="0.5"/>
    <circle cx="42" cy="40" r="1.1" opacity="0.7"/>
    <circle cx="57" cy="40" r="1.4" opacity="0.9"/>
    <circle cx="72" cy="40" r="0.9" opacity="0.6"/>
    <circle cx="87" cy="40" r="1.2" opacity="0.8"/>
    <circle cx="102" cy="40" r="0.8" opacity="0.5"/>
    <circle cx="117" cy="40" r="1.3" opacity="0.9"/>
    <circle cx="132" cy="40" r="1" opacity="0.6"/>
    <circle cx="147" cy="40" r="1.4" opacity="0.9"/>
    <circle cx="162" cy="40" r="0.7" opacity="0.5"/>
    <circle cx="177" cy="40" r="1.2" opacity="0.8"/>
    <circle cx="192" cy="40" r="0.9" opacity="0.6"/>
    <circle cx="207" cy="40" r="1.3" opacity="0.9"/>
    <circle cx="222" cy="40" r="0.8" opacity="0.5"/>
    <circle cx="237" cy="40" r="1.4" opacity="0.9"/>
    <circle cx="252" cy="40" r="1" opacity="0.7"/>
    <circle cx="267" cy="40" r="0.7" opacity="0.5"/>
    <circle cx="282" cy="40" r="1.3" opacity="0.9"/>
    <circle cx="297" cy="40" r="0.9" opacity="0.6"/>

    <circle cx="8" cy="55" r="1.1" opacity="0.7"/>
    <circle cx="23" cy="55" r="1.4" opacity="0.9"/>
    <circle cx="38" cy="55" r="0.8" opacity="0.5"/>
    <circle cx="53" cy="55" r="1.2" opacity="0.8"/>
    <circle cx="68" cy="55" r="0.7" opacity="0.5"/>
    <circle cx="83" cy="55" r="1.3" opacity="0.9"/>
    <circle cx="98" cy="55" r="1" opacity="0.6"/>
    <circle cx="113" cy="55" r="1.4" opacity="0.9"/>
    <circle cx="128" cy="55" r="0.9" opacity="0.6"/>
    <circle cx="143" cy="55" r="1.2" opacity="0.8"/>
    <circle cx="158" cy="55" r="0.6" opacity="0.5"/>
    <circle cx="173" cy="55" r="1.3" opacity="0.9"/>
    <circle cx="188" cy="55" r="1.1" opacity="0.7"/>
    <circle cx="203" cy="55" r="0.8" opacity="0.5"/>
    <circle cx="218" cy="55" r="1.4" opacity="0.9"/>
    <circle cx="233" cy="55" r="1" opacity="0.6"/>
    <circle cx="248" cy="55" r="1.2" opacity="0.8"/>
    <circle cx="263" cy="55" r="0.7" opacity="0.5"/>
    <circle cx="278" cy="55" r="1.3" opacity="0.9"/>
    <circle cx="293" cy="55" r="1" opacity="0.7"/>

    <circle cx="15" cy="70" r="1.2" opacity="0.8"/>
    <circle cx="30" cy="70" r="0.8" opacity="0.5"/>
    <circle cx="45" cy="70" r="1.4" opacity="0.9"/>
    <circle cx="60" cy="70" r="1" opacity="0.6"/>
    <circle cx="75" cy="70" r="0.7" opacity="0.5"/>
    <circle cx="90" cy="70" r="1.3" opacity="0.9"/>
    <circle cx="105" cy="70" r="1.1" opacity="0.7"/>
    <circle cx="120" cy="70" r="0.9" opacity="0.6"/>
    <circle cx="135" cy="70" r="1.4" opacity="0.9"/>
    <circle cx="150" cy="70" r="0.8" opacity="0.5"/>
    <circle cx="165" cy="70" r="1.2" opacity="0.8"/>
    <circle cx="180" cy="70" r="1" opacity="0.6"/>
    <circle cx="195" cy="70" r="1.3" opacity="0.9"/>
    <circle cx="210" cy="70" r="0.6" opacity="0.5"/>
    <circle cx="225" cy="70" r="1.4" opacity="0.9"/>
    <circle cx="240" cy="70" r="0.9" opacity="0.6"/>
    <circle cx="255" cy="70" r="1.2" opacity="0.8"/>
    <circle cx="270" cy="70" r="1" opacity="0.7"/>
    <circle cx="285" cy="70" r="0.7" opacity="0.5"/>

    <circle cx="20" cy="175" r="1.3" opacity="0.9"/>
    <circle cx="35" cy="175" r="0.8" opacity="0.5"/>
    <circle cx="50" cy="175" r="1.1" opacity="0.7"/>
    <circle cx="65" cy="175" r="1.4" opacity="0.9"/>
    <circle cx="80" cy="175" r="0.9" opacity="0.6"/>
    <circle cx="200" cy="175" r="1.2" opacity="0.8"/>
    <circle cx="215" cy="175" r="0.7" opacity="0.5"/>
    <circle cx="230" cy="175" r="1.3" opacity="0.9"/>
    <circle cx="245" cy="175" r="1" opacity="0.6"/>
    <circle cx="260" cy="175" r="1.4" opacity="0.9"/>
    <circle cx="275" cy="175" r="0.7" opacity="0.5"/>
    <circle cx="290" cy="175" r="1.2" opacity="0.8"/>

    <circle cx="10" cy="195" r="0.9" opacity="0.6"/>
    <circle cx="25" cy="195" r="1.3" opacity="0.9"/>
    <circle cx="40" cy="195" r="0.7" opacity="0.5"/>
    <circle cx="55" cy="195" r="1.1" opacity="0.7"/>
    <circle cx="70" cy="195" r="1.4" opacity="0.9"/>
    <circle cx="85" cy="195" r="0.8" opacity="0.5"/>
    <circle cx="210" cy="195" r="1.2" opacity="0.8"/>
    <circle cx="225" cy="195" r="1" opacity="0.6"/>
    <circle cx="240" cy="195" r="1.3" opacity="0.9"/>
    <circle cx="255" cy="195" r="0.7" opacity="0.5"/>
    <circle cx="270" cy="195" r="1.4" opacity="0.9"/>
    <circle cx="285" cy="195" r="1" opacity="0.7"/>

    <circle cx="15" cy="215" r="1.2" opacity="0.8"/>
    <circle cx="30" cy="215" r="0.8" opacity="0.5"/>
    <circle cx="45" cy="215" r="1.4" opacity="0.9"/>
    <circle cx="60" cy="215" r="1" opacity="0.6"/>
    <circle cx="75" cy="215" r="0.7" opacity="0.5"/>
    <circle cx="90" cy="215" r="1.3" opacity="0.9"/>
    <circle cx="205" cy="215" r="1.1" opacity="0.7"/>
    <circle cx="220" cy="215" r="0.9" opacity="0.6"/>
    <circle cx="235" cy="215" r="1.4" opacity="0.9"/>
    <circle cx="250" cy="215" r="0.8" opacity="0.5"/>
    <circle cx="265" cy="215" r="1.2" opacity="0.8"/>
    <circle cx="280" cy="215" r="1" opacity="0.6"/>
    <circle cx="295" cy="215" r="1.3" opacity="0.9"/>

    <circle cx="5" cy="235" r="0.8" opacity="0.5"/>
    <circle cx="20" cy="235" r="1.4" opacity="0.9"/>
    <circle cx="35" cy="235" r="1" opacity="0.6"/>
    <circle cx="50" cy="235" r="1.2" opacity="0.8"/>
    <circle cx="65" cy="235" r="0.7" opacity="0.5"/>
    <circle cx="80" cy="235" r="1.3" opacity="0.9"/>
    <circle cx="215" cy="235" r="0.9" opacity="0.6"/>
    <circle cx="230" cy="235" r="1.4" opacity="0.9"/>
    <circle cx="245" cy="235" r="0.8" opacity="0.5"/>
    <circle cx="260" cy="235" r="1.2" opacity="0.8"/>
    <circle cx="275" cy="235" r="1" opacity="0.7"/>
    <circle cx="290" cy="235" r="1.3" opacity="0.9"/>

    <circle cx="12" cy="255" r="1.1" opacity="0.7"/>
    <circle cx="27" cy="255" r="0.7" opacity="0.5"/>
    <circle cx="42" cy="255" r="1.3" opacity="0.9"/>
    <circle cx="57" cy="255" r="1" opacity="0.6"/>
    <circle cx="72" cy="255" r="1.4" opacity="0.9"/>
    <circle cx="87" cy="255" r="0.8" opacity="0.5"/>
    <circle cx="205" cy="255" r="1.2" opacity="0.8"/>
    <circle cx="220" cy="255" r="0.9" opacity="0.6"/>
    <circle cx="235" cy="255" r="1.3" opacity="0.9"/>
    <circle cx="250" cy="255" r="0.7" opacity="0.5"/>
    <circle cx="265" cy="255" r="1.1" opacity="0.7"/>
    <circle cx="280" cy="255" r="1.4" opacity="0.9"/>
    <circle cx="295" cy="255" r="1" opacity="0.6"/>

    <circle cx="8" cy="275" r="1.3" opacity="0.9"/>
    <circle cx="23" cy="275" r="0.8" opacity="0.5"/>
    <circle cx="38" cy="275" r="1.2" opacity="0.8"/>
    <circle cx="53" cy="275" r="1" opacity="0.6"/>
    <circle cx="68" cy="275" r="0.7" opacity="0.5"/>
    <circle cx="83" cy="275" r="1.4" opacity="0.9"/>
    <circle cx="210" cy="275" r="1" opacity="0.7"/>
    <circle cx="225" cy="275" r="1.3" opacity="0.9"/>
    <circle cx="240" cy="275" r="0.8" opacity="0.5"/>
    <circle cx="255" cy="275" r="1.2" opacity="0.8"/>
    <circle cx="270" cy="275" r="0.9" opacity="0.6"/>
    <circle cx="285" cy="275" r="1.4" opacity="0.9"/>

    <circle cx="15" cy="292" r="1.1" opacity="0.7"/>
    <circle cx="30" cy="292" r="1.3" opacity="0.9"/>
    <circle cx="45" cy="292" r="0.8" opacity="0.5"/>
    <circle cx="60" cy="292" r="1.2" opacity="0.8"/>
    <circle cx="75" cy="292" r="1" opacity="0.6"/>
    <circle cx="90" cy="292" r="1.4" opacity="0.9"/>
    <circle cx="215" cy="292" r="0.7" opacity="0.5"/>
    <circle cx="230" cy="292" r="1.1" opacity="0.7"/>
    <circle cx="245" cy="292" r="1.3" opacity="0.9"/>
    <circle cx="260" cy="292" r="0.9" opacity="0.6"/>
    <circle cx="275" cy="292" r="1.2" opacity="0.8"/>
    <circle cx="290" cy="292" r="1.4" opacity="0.9"/>
  </g>

  <!-- Speed lines (canto superior esquerdo) -->
  <g stroke="#ffffff" stroke-linecap="round" opacity="0.45">
    <line x1="0" y1="100" x2="70" y2="115" stroke-width="1.2"/>
    <line x1="0" y1="115" x2="80" y2="125" stroke-width="0.8"/>
    <line x1="0" y1="130" x2="60" y2="140" stroke-width="1.5"/>
    <line x1="0" y1="145" x2="75" y2="152" stroke-width="0.9"/>
    <line x1="0" y1="158" x2="55" y2="160" stroke-width="1.2"/>
    <line x1="0" y1="90" x2="50" y2="105" stroke-width="0.7"/>
  </g>

  <!-- Speed lines (canto inferior direito) -->
  <g stroke="#ffffff" stroke-linecap="round" opacity="0.45">
    <line x1="230" y1="100" x2="300" y2="90" stroke-width="1.2"/>
    <line x1="220" y1="115" x2="300" y2="108" stroke-width="0.8"/>
    <line x1="240" y1="130" x2="300" y2="125" stroke-width="1.5"/>
    <line x1="225" y1="145" x2="300" y2="140" stroke-width="0.9"/>
    <line x1="245" y1="158" x2="300" y2="155" stroke-width="1.2"/>
    <line x1="250" y1="90" x2="300" y2="75" stroke-width="0.7"/>
  </g>

  <!-- Ink splash centro -->
  <g transform="translate(150, 130)" opacity="0.5">
    <path d="M0,-18 L4,-12 L10,-14 L6,-6 L14,-4 L8,0 L16,6 L8,6 L10,14 L4,10 L2,18 L-2,10 L-8,16 L-6,8 L-14,10 L-8,2 L-16,-2 L-8,-4 L-12,-12 L-4,-10 Z" fill="#ffffff"/>
    <circle cx="18" cy="-8" r="1.5" fill="#ffffff"/>
    <circle cx="-20" cy="4" r="2" fill="#ffffff"/>
    <circle cx="14" cy="16" r="1.2" fill="#ffffff"/>
    <circle cx="-16" cy="-14" r="1" fill="#ffffff"/>
    <circle cx="22" cy="0" r="0.8" fill="#ffffff"/>
  </g>

  <!-- Kanji 最 (mais/strongest) decorativo -->
  <g transform="translate(128, 120)" opacity="0.12" fill="#ffffff">
    <rect x="0" y="0" width="44" height="3"/>
    <rect x="0" y="0" width="3" height="20"/>
    <rect x="41" y="0" width="3" height="20"/>
    <rect x="0" y="17" width="44" height="3"/>
    <rect x="8" y="6" width="28" height="2"/>
    <rect x="8" y="11" width="28" height="2"/>
    <rect x="20" y="20" width="3" height="28"/>
    <rect x="2" y="28" width="40" height="2.5"/>
    <rect x="6" y="36" width="32" height="2.5"/>
    <rect x="10" y="44" width="24" height="2.5"/>
  </g>

  <!-- Triângulo decorativo estilo manga (canto) -->
  <g fill="#ffffff" opacity="0.08">
    <polygon points="260,0 300,0 300,40"/>
    <polygon points="0,260 0,300 40,300"/>
  </g>

  <!-- Pontinhos grandes de destaque -->
  <circle cx="175" cy="85" r="2.5" fill="#ffffff" opacity="0.5"/>
  <circle cx="95" cy="165" r="2" fill="#ffffff" opacity="0.4"/>
  <circle cx="60" cy="250" r="2.8" fill="#ffffff" opacity="0.5"/>
  <circle cx="245" cy="50" r="2.2" fill="#ffffff" opacity="0.45"/>
</svg>
